<svg xmlns="http://www.w3.org/2000/svg" width="800" height="600" viewBox="0 0 800 600">
  <rect width="800" height="600" fill="#f9f7ff"/>
  
  <!-- Book shape -->
  <rect x="200" y="150" width="400" height="300" rx="20" fill="#e9d5ff"/>
  <rect x="220" y="170" width="360" height="260" rx="10" fill="#f9f7ff"/>
  
  <!-- Book spine -->
  <rect x="390" y="150" width="20" height="300" fill="#9333ea"/>
  
  <!-- Text lines (left page) -->
  <rect x="240" y="200" width="130" height="8" rx="4" fill="#9333ea" opacity="0.7"/>
  <rect x="240" y="220" width="110" height="8" rx="4" fill="#9333ea" opacity="0.7"/>
  <rect x="240" y="240" width="130" height="8" rx="4" fill="#9333ea" opacity="0.7"/>
  <rect x="240" y="260" width="90" height="8" rx="4" fill="#9333ea" opacity="0.7"/>
  <rect x="240" y="280" width="120" height="8" rx="4" fill="#9333ea" opacity="0.7"/>
  <rect x="240" y="300" width="130" height="8" rx="4" fill="#9333ea" opacity="0.7"/>
  <rect x="240" y="320" width="100" height="8" rx="4" fill="#9333ea" opacity="0.7"/>
  <rect x="240" y="340" width="130" height="8" rx="4" fill="#9333ea" opacity="0.7"/>
  <rect x="240" y="360" width="110" height="8" rx="4" fill="#9333ea" opacity="0.7"/>
  <rect x="240" y="380" width="120" height="8" rx="4" fill="#9333ea" opacity="0.7"/>
  
  <!-- Text lines (right page) -->
  <rect x="430" y="200" width="130" height="8" rx="4" fill="#9333ea" opacity="0.7"/>
  <rect x="430" y="220" width="110" height="8" rx="4" fill="#9333ea" opacity="0.7"/>
  <rect x="430" y="240" width="130" height="8" rx="4" fill="#9333ea" opacity="0.7"/>
  <rect x="430" y="260" width="90" height="8" rx="4" fill="#9333ea" opacity="0.7"/>
  <rect x="430" y="280" width="120" height="8" rx="4" fill="#9333ea" opacity="0.7"/>
  <rect x="430" y="300" width="130" height="8" rx="4" fill="#9333ea" opacity="0.7"/>
  <rect x="430" y="320" width="100" height="8" rx="4" fill="#9333ea" opacity="0.7"/>
  <rect x="430" y="340" width="130" height="8" rx="4" fill="#9333ea" opacity="0.7"/>
  <rect x="430" y="360" width="110" height="8" rx="4" fill="#9333ea" opacity="0.7"/>
  <rect x="430" y="380" width="120" height="8" rx="4" fill="#9333ea" opacity="0.7"/>
</svg>
