<?xml version="1.0" standalone="no"?>
<!DOCTYPE svg PUBLIC "-//W3C//DTD SVG 20010904//EN"
 "http://www.w3.org/TR/2001/REC-SVG-20010904/DTD/svg10.dtd">
<svg version="1.0" xmlns="http://www.w3.org/2000/svg"
 width="1536.000000pt" height="1024.000000pt" viewBox="0 0 1536.000000 1024.000000"
 preserveAspectRatio="xMidYMid meet">

<g transform="translate(0.000000,1024.000000) scale(0.100000,-0.100000)"
fill="#000000" stroke="none">
<path d="M2587 7355 c-162 -45 -300 -208 -327 -390 -7 -48 -10 -670 -8 -1965
l3 -1895 23 -65 c57 -160 178 -277 327 -316 76 -21 9456 -20 9531 0 149 39
266 151 321 306 l23 65 0 1935 c0 2137 4 1997 -63 2108 -63 104 -152 177 -265
214 -53 17 -241 18 -4786 17 -3886 -1 -4740 -3 -4779 -14z m2343 -685 c273
-34 511 -151 711 -350 222 -221 346 -498 366 -816 l6 -104 51 -29 c66 -37 131
-108 164 -179 l27 -57 0 -275 0 -275 -30 -58 c-38 -77 -126 -158 -202 -188
-42 -16 -81 -22 -141 -23 -82 -1 -84 0 -113 32 l-29 32 0 481 0 482 35 33 c39
37 42 56 25 179 -57 399 -310 725 -662 854 -128 47 -178 55 -343 55 -145 0
-168 -3 -250 -27 -375 -114 -647 -410 -726 -792 -10 -49 -19 -127 -19 -172 0
-73 2 -82 20 -88 48 -15 50 -32 50 -527 0 -441 -1 -464 -20 -495 -27 -45 -82
-59 -174 -45 -138 21 -249 101 -304 220 l-27 57 0 270 0 270 29 60 c34 70 128
167 179 186 l34 12 7 96 c19 254 94 474 227 667 253 366 684 566 1109 514z
m3157 -411 c74 -35 124 -90 155 -168 18 -44 22 -77 23 -156 0 -135 -20 -191
-94 -266 -71 -70 -133 -94 -243 -93 -66 1 -87 6 -142 33 -103 50 -156 130
-177 261 -47 304 215 517 478 389z m2499 6 c141 -63 216 -229 186 -406 -22
-126 -81 -208 -184 -254 -52 -24 -77 -29 -144 -29 -72 0 -89 4 -147 32 -127
63 -180 160 -180 327 0 117 21 186 79 254 89 103 258 136 390 76z m-3516 -125
l0 -140 135 0 135 0 0 140 0 140 70 0 70 0 -2 -347 -3 -347 -65 0 -65 0 -5
140 -5 139 -130 0 -130 0 -5 -140 -5 -139 -60 1 c-33 1 -63 2 -67 2 -5 1 -8
156 -8 346 l0 345 70 0 70 0 0 -140z m1455 -92 c32 -128 61 -239 65 -246 3 -7
19 40 34 105 15 65 41 175 58 246 l30 127 72 0 72 0 53 -227 c30 -126 57 -237
61 -247 4 -13 24 52 59 190 28 115 56 226 62 247 l10 37 69 0 c39 0 70 -2 70
-5 0 -2 -30 -121 -66 -262 -37 -142 -77 -296 -89 -343 l-22 -85 -77 1 c-43 1
-81 5 -86 10 -4 5 -32 114 -61 241 -29 128 -54 231 -56 229 -2 -2 -28 -108
-57 -235 -29 -127 -55 -233 -57 -236 -2 -2 -40 -5 -84 -6 -69 -2 -80 0 -87 17
-7 17 -178 661 -178 670 0 2 33 4 73 4 l73 0 59 -232z m1543 170 l-3 -63 -85
-1 -85 -2 -3 -281 -2 -281 -23 -5 c-12 -2 -44 -3 -72 -2 l-50 3 -3 281 -2 282
-93 3 -92 3 -3 49 c-2 27 -1 55 2 62 4 11 53 14 261 14 l256 0 -3 -62z m-5387
-200 l150 -72 -8 -35 c-4 -20 -8 -63 -8 -96 1 -105 73 -203 178 -242 59 -21
147 -16 205 13 47 23 94 66 104 95 2 6 70 -21 171 -70 182 -88 207 -110 207
-182 0 -39 -36 -119 -580 -1284 -172 -368 -318 -683 -325 -700 -27 -61 -91
-100 -142 -86 -16 5 -91 38 -167 75 -117 56 -137 69 -130 83 4 10 9 50 12 89
3 61 1 77 -21 121 -50 98 -137 147 -252 141 -59 -3 -81 -9 -121 -34 -27 -16
-58 -44 -69 -62 -11 -17 -26 -31 -33 -32 -27 0 -311 150 -331 176 -34 43 -27
82 40 223 61 129 61 130 88 119 14 -6 58 -11 97 -11 60 0 79 4 116 26 81 47
82 51 88 452 l6 350 111 235 c61 129 163 348 227 485 70 153 126 259 141 273
43 37 81 29 246 -50z m3323 -697 c71 -35 112 -79 149 -158 19 -41 22 -65 22
-168 0 -101 -4 -127 -21 -166 -30 -64 -88 -125 -148 -157 -46 -24 -61 -27
-156 -27 -119 0 -162 15 -233 84 -133 125 -139 392 -14 528 69 75 145 104 259
100 62 -3 89 -10 142 -36z m741 8 c138 -65 207 -215 184 -398 -11 -90 -45
-156 -109 -214 -62 -55 -122 -77 -215 -77 -137 0 -236 58 -295 174 -34 67 -35
72 -35 185 0 111 1 119 33 183 38 79 97 132 175 160 72 26 192 20 262 -13z
m-1455 -1 c52 -22 97 -79 105 -132 9 -60 -8 -108 -53 -147 -34 -30 -35 -33
-18 -43 76 -45 106 -92 106 -168 0 -74 -31 -124 -95 -157 -47 -25 -59 -26
-227 -29 l-178 -4 0 345 c0 189 3 347 8 351 13 14 314 0 352 -16z m1910 -120
l5 -137 109 139 108 140 79 0 c43 0 80 -4 83 -8 3 -5 -51 -79 -120 -165 -80
-100 -123 -161 -118 -169 4 -7 65 -87 136 -179 70 -92 128 -170 128 -173 0 -3
-40 -6 -88 -6 l-88 0 -90 122 c-49 67 -92 126 -96 132 -4 6 -14 3 -27 -8 -19
-17 -21 -31 -21 -133 l0 -114 -72 3 -73 3 -3 334 c-2 244 1 337 9 348 9 10 30
13 73 11 l61 -3 5 -137z m-1019 -803 c23 -9 58 -27 76 -41 35 -26 93 -99 93
-116 0 -9 -101 -58 -119 -58 -5 0 -18 16 -30 35 -45 76 -169 87 -239 22 -47
-44 -66 -96 -66 -182 -1 -70 3 -87 28 -133 31 -55 69 -85 124 -97 50 -10 91 4
139 48 l44 40 59 -28 c33 -16 60 -32 60 -35 0 -14 -61 -83 -92 -107 -100 -73
-277 -69 -380 10 -94 72 -133 174 -126 329 3 77 9 104 31 151 33 66 110 139
170 160 56 20 173 21 228 2z m2287 -15 c36 -20 102 -98 102 -120 0 -4 -28 -18
-62 -32 -57 -24 -64 -24 -72 -9 -5 9 -18 26 -29 38 -60 67 -182 13 -145 -65
10 -19 38 -36 112 -66 162 -68 202 -117 194 -241 -8 -126 -86 -189 -233 -190
-104 0 -165 28 -212 99 -18 27 -33 54 -33 61 0 11 94 55 115 55 3 0 11 -13 20
-30 40 -77 182 -79 201 -3 12 48 -13 73 -117 118 -53 23 -111 52 -129 65 -69
49 -91 168 -47 251 18 33 37 51 78 72 49 26 61 29 134 25 61 -3 91 -10 123
-28z m-3070 -42 l-3 -63 -87 -3 -88 -3 0 -279 0 -280 -70 0 -70 0 0 280 0 280
-89 0 c-72 0 -90 3 -95 16 -8 21 -8 99 1 107 3 4 118 7 255 7 l249 0 -3 -62z
m240 -285 l2 -343 -75 0 -75 0 0 345 0 346 73 -3 72 -3 3 -342z m942 213 l5
-128 97 131 98 131 80 0 c44 0 80 -2 80 -5 0 -3 -47 -70 -106 -150 -58 -81
-107 -152 -110 -160 -4 -11 108 -172 227 -327 16 -20 29 -39 29 -42 0 -3 -39
-6 -87 -6 l-88 0 -89 128 c-49 70 -91 129 -93 131 -1 2 -12 -4 -23 -14 -18
-16 -20 -31 -20 -132 l0 -114 -72 3 -73 3 -3 330 c-1 181 0 336 3 343 3 9 24
12 72 10 l68 -3 5 -129z m888 75 c2 -37 -1 -57 -10 -62 -7 -5 -70 -9 -140 -9
l-128 0 0 -75 0 -75 125 0 125 0 0 -65 0 -65 -125 0 -126 0 3 -77 3 -78 140
-5 140 -5 0 -55 0 -55 -212 -3 -213 -2 0 345 0 345 208 -2 207 -3 3 -54z m580
-3 l-3 -63 -87 -3 -88 -3 0 -279 0 -280 -70 0 -70 0 0 280 0 279 -92 3 -93 3
-3 49 c-2 27 -1 55 2 62 4 11 52 14 256 14 l251 0 -3 -62z"/>
<path d="M7854 6146 c-136 -59 -138 -345 -4 -413 105 -54 220 -7 258 106 15
42 15 144 2 193 -14 48 -55 97 -97 114 -41 18 -119 17 -159 0z"/>
<path d="M10365 6146 c-74 -32 -110 -115 -103 -232 6 -94 37 -151 98 -181 136
-69 270 28 270 197 0 149 -66 231 -187 230 -26 -1 -62 -7 -78 -14z"/>
<path d="M4347 5453 c-2 -10 -8 -26 -12 -35 -5 -13 8 -24 65 -53 40 -20 73
-35 75 -33 1 2 10 17 18 35 l16 31 -75 36 c-42 20 -77 36 -79 36 -1 0 -5 -8
-8 -17z"/>
<path d="M4599 5323 c-5 -14 -12 -30 -15 -34 -3 -5 31 -27 75 -49 l81 -40 15
36 c8 21 14 38 13 39 -2 2 -38 19 -81 38 l-78 36 -10 -26z"/>
<path d="M4865 5189 c-8 -15 -15 -32 -15 -36 0 -9 123 -73 139 -73 9 0 36 58
30 64 -2 2 -34 19 -72 38 l-68 36 -14 -29z"/>
<path d="M5112 5058 c-6 -17 -11 -33 -9 -34 18 -16 147 -71 151 -65 3 4 10 20
15 35 10 25 8 27 -59 61 -38 19 -73 35 -78 35 -4 0 -13 -14 -20 -32z"/>
<path d="M7788 5219 c-46 -13 -103 -74 -117 -126 -14 -49 -14 -137 0 -186 13
-47 63 -106 106 -123 69 -29 167 -5 211 51 54 69 64 197 23 291 -34 77 -133
118 -223 93z"/>
<path d="M8555 5221 c-45 -11 -82 -38 -107 -80 -20 -31 -23 -49 -23 -142 0
-99 2 -108 28 -148 45 -68 139 -99 214 -70 120 45 164 246 80 370 -39 58 -121
88 -192 70z"/>
<path d="M7070 5139 l0 -81 69 4 c85 4 111 23 111 79 0 56 -34 79 -116 79
l-64 0 0 -81z"/>
<path d="M7070 4859 l0 -81 90 4 c99 3 115 12 126 65 5 27 1 37 -24 63 -29 28
-35 30 -111 30 l-81 0 0 -81z"/>
</g>
</svg>
